<?xml version="1.0" standalone="no"?>
<svg xmlns:xlink="http://www.w3.org/1999/xlink" id="wave" style="transform:rotate(180deg); transition: 0.3s" viewBox="0 0 1440 490" version="1.1" xmlns="http://www.w3.org/2000/svg"><defs><linearGradient id="sw-gradient-0" x1="0" x2="0" y1="1" y2="0"><stop stop-color="rgba(25.415, 21.021, 19.61, 1)" offset="0%"/><stop stop-color="rgba(39.075, 37.533, 34.122, 1)" offset="100%"/></linearGradient></defs><path style="transform:translate(0, 0px); opacity:1" fill="url(#sw-gradient-0)" d="M0,196L120,204.2C240,212,480,229,720,220.5C960,212,1200,180,1440,163.3C1680,147,1920,147,2160,130.7C2400,114,2640,82,2880,114.3C3120,147,3360,245,3600,236.8C3840,229,4080,114,4320,89.8C4560,65,4800,131,5040,196C5280,261,5520,327,5760,294C6000,261,6240,131,6480,114.3C6720,98,6960,196,7200,196C7440,196,7680,98,7920,122.5C8160,147,8400,294,8640,318.5C8880,343,9120,245,9360,228.7C9600,212,9840,278,10080,285.8C10320,294,10560,245,10800,187.8C11040,131,11280,65,11520,106.2C11760,147,12000,294,12240,351.2C12480,408,12720,376,12960,359.3C13200,343,13440,343,13680,294C13920,245,14160,147,14400,138.8C14640,131,14880,212,15120,236.8C15360,261,15600,229,15840,253.2C16080,278,16320,359,16560,359.3C16800,359,17040,278,17160,236.8L17280,196L17280,490L17160,490C17040,490,16800,490,16560,490C16320,490,16080,490,15840,490C15600,490,15360,490,15120,490C14880,490,14640,490,14400,490C14160,490,13920,490,13680,490C13440,490,13200,490,12960,490C12720,490,12480,490,12240,490C12000,490,11760,490,11520,490C11280,490,11040,490,10800,490C10560,490,10320,490,10080,490C9840,490,9600,490,9360,490C9120,490,8880,490,8640,490C8400,490,8160,490,7920,490C7680,490,7440,490,7200,490C6960,490,6720,490,6480,490C6240,490,6000,490,5760,490C5520,490,5280,490,5040,490C4800,490,4560,490,4320,490C4080,490,3840,490,3600,490C3360,490,3120,490,2880,490C2640,490,2400,490,2160,490C1920,490,1680,490,1440,490C1200,490,960,490,720,490C480,490,240,490,120,490L0,490Z"/></svg>